Coordinates
version=1
nRows=29
nColumns=24
inDegrees=yes

Units are S.I. units (second, meters, Newtons, ...)
Angles are in degrees.

endheader
time	pelvis_tilt	pelvis_list	pelvis_rotation	pelvis_tx	pelvis_ty	pelvis_tz	hip_flexion_r	hip_adduction_r	hip_rotation_r	knee_angle_r	ankle_angle_r	subtalar_angle_r	mtp_angle_r	hip_flexion_l	hip_adduction_l	hip_rotation_l	knee_angle_l	ankle_angle_l	subtalar_angle_l	mtp_angle_l	lumbar_extension	lumbar_bending	lumbar_rotation
      1.49766667	      3.93973513	      6.76607875	     -3.76614520	      0.40053102	      0.90735999	      0.34182103	      6.32348036	    -11.02848015	     -7.71501765	    -68.11819230	      8.41930992	      6.11620145	      5.96921720	      7.67228354	     10.92745086	     -4.77968196	    -20.38117599	     10.36688987	     -9.22381225	      3.87106271	     -9.01482528	    -11.16806200	      5.47569509
      1.50183333	      3.98211730	      6.59901276	     -3.61675337	      0.40534184	      0.90859182	      0.34160966	      6.95843682	    -10.76524050	     -7.74683032	    -67.84782251	      9.02851333	      6.06034858	      5.89737276	      6.98994173	     10.80341435	     -4.57062739	    -19.84457359	     10.36986379	     -9.11445259	      3.90647019	     -9.10670160	    -10.96543868	      5.24923341
      1.50600000	      4.05962936	      6.43010283	     -3.45371164	      0.41018153	      0.90987131	      0.34136204	      7.52726190	    -10.51282548	     -7.81042001	    -67.50318206	      9.56266462	      6.03605991	      5.76250933	      6.24616021	     10.68596483	     -4.30965294	    -19.26237702	     10.37109622	     -9.04760610	      3.96441939	     -9.22612380	    -10.76477754	      4.92497445
      1.51016667	      4.09227060	      6.25199060	     -3.27915669	      0.41494526	      0.91102959	      0.34111628	      8.14709776	    -10.23894384	     -7.87099248	    -67.13078480	     10.13205095	      5.93398670	      5.68784059	      5.58907837	     10.54112274	     -4.09300695	    -18.74650694	     10.34641211	     -8.93901701	      3.99813898	     -9.31925984	    -10.53536837	      4.75193972
      1.51433333	      4.19162824	      6.07468338	     -3.08934763	      0.41976172	      0.91228699	      0.34082429	      8.65583860	     -9.98592937	     -7.97186070	    -66.67107324	     10.59525306	      5.88025279	      5.54890705	      4.82118438	     10.41102422	     -3.80143398	    -18.15587774	     10.34245471	     -8.88668262	      4.05277733	     -9.47072889	    -10.31822352	      4.42295968
      1.51850000	      4.24107928	      5.88711900	     -2.88247461	      0.42450920	      0.91341667	      0.34052515	      9.21690550	     -9.71171575	     -8.07340971	    -66.18187894	     11.09782781	      5.76960239	      5.45578562	      4.14646359	     10.25335722	     -3.54287878	    -17.63503320	     10.30502002	     -8.80202188	      4.08957099	     -9.59074619	    -10.06938019	      4.20885768
      1.52266667	      4.34975745	      5.70769702	     -2.67596933	      0.42931353	      0.91461682	      0.34019511	      9.68592674	     -9.46899332	     -8.20616211	    -65.61957790	     11.48492504	      5.67246208	      5.29081479	      3.36784370	     10.11454680	     -3.23140062	    -17.03513229	     10.28970188	     -8.77927153	      4.14672706	     -9.74470592	     -9.84648108	      3.85880721
      1.52683333	      4.43358032	      5.51671688	     -2.44945806	      0.43408496	      0.91573577	      0.33985662	     10.16683086	     -9.20790117	     -8.34856359	    -65.01186458	     11.88195235	      5.54301450	      5.13688924	      2.63954781	      9.95095171	     -2.92534966	    -16.47750218	     10.26061246	     -8.73869543	      4.19791485	     -9.88426859	     -9.59420273	      3.57636249
      1.53100000	      4.52687500	      5.32536784	     -2.21440232	      0.43883624	      0.91683158	      0.33950313	     10.62229975	     -8.95171806	     -8.50427756	    -64.35171810	     12.23799604	      5.39207466	      4.98310176	      1.90413285	      9.78262274	     -2.61418148	    -15.91993154	     10.22977667	     -8.70176579	      4.24577089	    -10.03959887	     -9.33921390	      3.28221428
      1.53516667	      4.59808844	      5.12195161	     -1.96112507	      0.44354867	      0.91785089	      0.33913450	     11.08679253	     -8.67985557	     -8.66785026	    -63.64377810	     12.59259774	      5.22303674	      4.87605728	      1.21823432	      9.58947971	     -2.31187693	    -15.40708211	     10.18480208	     -8.63113892	      4.27797650	    -10.18929007	     -9.07235314	      3.03992297
      1.53933333	      4.72058049	      4.93972492	     -1.72062993	      0.44831903	      0.91890037	      0.33875064	     11.47782129	     -8.45156365	     -8.84703005	    -62.88417774	     12.83747041	      5.02600710	      4.70824108	      0.43893173	      9.42478945	     -1.97961188	    -14.81493112	     10.17109895	     -8.63300459	      4.32412536	    -10.35930804	     -8.82059937	      2.67066669
      1.54350000	      4.81636135	      4.73891415	     -1.45771531	      0.45303911	      0.91987325	      0.33836651	     11.87970105	     -8.19492366	     -9.03408634	    -62.07143893	     13.08653069	      4.81033067	      4.55326896	     -0.28160384	      9.22615826	     -1.64973279	    -14.27649369	     10.13723756	     -8.61213726	      4.36495671	    -10.51960880	     -8.55510572	      2.36772333
      1.54766667	      4.91649363	      4.55320577	     -1.19721768	      0.45777883	      0.92079109	      0.33795502	     12.26589467	     -7.96886991	     -9.23206640	    -61.22422950	     13.29059620	      4.56803629	      4.38706765	     -1.01123556	      9.04055307	     -1.32572677	    -13.72336203	     10.11018318	     -8.59773235	      4.40682368	    -10.67096399	     -8.28561654	      2.04191096
      1.55183333	      5.00710155	      4.38396257	     -0.92141120	      0.46250725	      0.92164539	      0.33752654	     12.64673635	     -7.76969442	     -9.44909949	    -60.33940395	     13.51133717	      4.35598740	      3.96853151	     -1.73272141	      8.87049540	     -0.95261597	    -13.15390630	     10.00117009	     -8.70537476	      4.50814157	    -10.80159896	     -8.05333415	      1.60705879
      1.55600000	      5.10445431	      4.18073135	     -0.65662796	      0.46720621	      0.92246972	      0.33714597	     13.00546092	     -7.51492481	     -9.63722358	    -59.39084394	     13.60584643	      4.03106736	      3.81896907	     -2.43116404	      8.64401345	     -0.66574525	    -12.64801908	     10.03850892	     -8.60201465	      4.54631137	    -10.96686159	     -7.76564147	      1.39952644
      1.56016667	      5.18971106	      3.98123536	     -0.36902697	      0.47190645	      0.92323352	      0.33674126	     13.35111584	     -7.27349320	     -9.85518507	    -58.39045843	     13.71833294	      3.72705614	      3.70223237	     -3.10058848	      8.41164329	     -0.38078818	    -12.16721631	     10.01149327	     -8.53362189	      4.57451728	    -11.10106065	     -7.49819829	      1.13722422
      1.56433333	      5.29953735	      3.81282458	     -0.11198381	      0.47661666	      0.92395075	      0.33634859	     13.67508346	     -7.07413917	    -10.05027497	    -57.37913128	     13.75033587	      3.38736595	      3.54071174	     -3.82669649	      8.21728798	     -0.07201083	    -11.61725754	     10.01959019	     -8.51932206	      4.61335140	    -11.26564672	     -7.23861936	      0.76861313
      1.56850000	      5.37009041	      3.62656173	      0.17986150	      0.48130843	      0.92458544	      0.33593639	     14.00964302	     -6.85508126	    -10.27257929	    -56.30353539	     13.80197186	      3.06256303	      3.42113306	     -4.46824951	      7.98668141	      0.20965865	    -11.14697738	      9.98072279	     -8.46693534	      4.64213496	    -11.37827681	     -6.97912086	      0.50269890
      1.57266667	      5.47789768	      3.49009177	      0.43716273	      0.48600063	      0.92518085	      0.33554370	     14.31277327	     -6.69723632	    -10.46443976	    -55.23250780	     13.82693970	      2.71119142	      3.12565470	     -5.19360842	      7.81787354	      0.55192333	    -10.57830906	      9.91934287	     -8.52125498	      4.71564171	    -11.54676124	     -6.76990710	      0.04213913
      1.57683333	      5.53885006	      3.30605875	      0.71989264	      0.49069462	      0.92569273	      0.33514406	     14.62915244	     -6.48373493	    -10.68253049	    -54.07673221	     13.77070631	      2.35688484	      3.00625414	     -5.80762892	      7.57680526	      0.79422621	    -10.13739488	      9.95242220	     -8.44631767	      4.74658094	    -11.63082629	     -6.49846160	     -0.14744746
      1.58100000	      5.64064386	      3.17544448	      0.97221260	      0.49538481	      0.92617383	      0.33477512	     14.90706216	     -6.32933881	    -10.86111250	    -52.92772428	     13.73731870	      1.97442921	      2.72109728	     -6.51039222	      7.39718810	      1.09286403	     -9.59336692	      9.90548660	     -8.44946130	      4.82313760	    -11.79233816	     -6.29842201	     -0.57199714
      1.58516667	      5.71821544	      3.03430117	      1.23405801	      0.50009705	      0.92657831	      0.33438567	     15.18743380	     -6.17510777	    -11.07431423	    -51.73213468	     13.66357525	      1.63295137	      2.28730749	     -7.16734544	      7.19841963	      1.35595721	     -9.09099466	      9.88012495	     -8.46080723	      4.94632530	    -11.88620037	     -6.06492850	     -0.91154024
      1.58933333	      5.77863685	      2.88795138	      1.48284526	      0.50476902	      0.92690155	      0.33405864	     15.47743571	     -5.99286882	    -11.23556221	    -50.49616762	     13.53001706	      1.22263263	      2.15363454	     -7.77671336	      6.98290945	      1.57062974	     -8.64504840	      9.94863296	     -8.34598930	      4.98698458	    -11.98838684	     -5.84628645	     -1.09891010
      1.59350000	      5.83548629	      2.75413441	      1.74359081	      0.50945593	      0.92717709	      0.33371280	     15.74763095	     -5.83557936	    -11.42468821	    -49.22505253	     13.41654442	      0.86648280	      2.04451463	     -8.37589431	      6.77464064	      1.77915506	     -8.20755405	      9.94521176	     -8.24909377	      5.01987560	    -12.06888511	     -5.63547085	     -1.34629072
      1.59766667	      5.90025921	      2.63523994	      1.98645433	      0.51416188	      0.92739534	      0.33339094	     16.00111199	     -5.69372808	    -11.59826308	    -47.93827002	     13.28127606	      0.50119181	      1.93133584	     -8.99754576	      6.58116656	      1.99089322	     -7.74387823	      9.95332875	     -8.17176639	      5.05465795	    -12.16665209	     -5.44021288	     -1.63042576
      1.60183333	      5.97567188	      2.54028074	      2.20435246	      0.51886337	      0.92755150	      0.33310241	     16.24174291	     -5.57385386	    -11.74127012	    -46.64609466	     13.13602745	      0.14068599	      1.77462926	     -9.64648681	      6.41383233	      2.20740919	     -7.24530787	      9.97771550	     -8.12333718	      5.10572505	    -12.28007344	     -5.28031062	     -1.95387475
      1.60600000	      6.03196704	      2.43921965	      2.43466458	      0.52356376	      0.92764829	      0.33281083	     16.47735895	     -5.44962532	    -11.89972263	    -45.30901799	     12.98604880	     -0.18407140	      1.62568866	    -10.25464778	      6.23174900	      2.40989118	     -6.78551018	      9.98646581	     -8.05548884	      5.15578186	    -12.36420639	     -5.11090301	     -2.22357927
      1.61016667	      6.07150169	      2.34345810	      2.66930651	      0.52828669	      0.92767257	      0.33251620	     16.70991099	     -5.33429027	    -12.06506933	    -43.94208814	     12.84192875	     -0.46126388	      1.51354687	    -10.82932354	      6.05011223	      2.58214426	     -6.36006377	      9.97925598	     -7.96661015	      5.19351736	    -12.41673055	     -4.93862798	     -2.44876040
      1.61433333	      6.12588563	      2.26180641	      2.88238510	      0.53300836	      0.92765460	      0.33227060	     16.91984413	     -5.22571783	    -12.20339383	    -42.56328618	     12.68664112	     -0.74702672	      1.39914501	    -11.43635031	      5.88148869	      2.75852484	     -5.90071834	      9.99189126	     -7.88002543	      5.23299250	    -12.49500467	     -4.79162515	     -2.70261879
